<svg width="30" height="30" viewBox="0 0 30 30" fill="none" xmlns="http://www.w3.org/2000/svg">
<path d="M15 0.371277C6.7125 0.371277 0 7.08753 0 15.3713C0 22 4.2975 27.6213 10.2563 29.6025C11.0063 29.7438 11.2812 29.28 11.2812 28.8813C11.2812 28.525 11.2688 27.5813 11.2625 26.3313C7.09 27.2363 6.21 24.3188 6.21 24.3188C5.5275 22.5875 4.54125 22.125 4.54125 22.125C3.1825 21.195 4.64625 21.2138 4.64625 21.2138C6.1525 21.3188 6.94375 22.7588 6.94375 22.7588C8.28125 25.0525 10.455 24.39 11.3125 24.0063C11.4475 23.0363 11.8338 22.375 12.2625 22C8.93125 21.625 5.43 20.335 5.43 14.5875C5.43 12.95 6.01125 11.6125 6.97375 10.5625C6.805 10.1838 6.29875 8.65878 7.105 6.59253C7.105 6.59253 8.36125 6.19003 11.23 8.13003C12.43 7.79628 13.705 7.63128 14.98 7.62378C16.255 7.63128 17.53 7.79628 18.73 8.13003C21.58 6.19003 22.8362 6.59253 22.8362 6.59253C23.6425 8.65878 23.1362 10.1838 22.9862 10.5625C23.9425 11.6125 24.5238 12.95 24.5238 14.5875C24.5238 20.35 21.0175 21.6188 17.68 21.9875C18.205 22.4375 18.6925 23.3575 18.6925 24.7625C18.6925 26.77 18.6737 28.3825 18.6737 28.87C18.6737 29.2638 18.9363 29.7325 19.705 29.5825C25.7062 27.615 30 21.99 30 15.3713C30 7.08753 23.2838 0.371277 15 0.371277Z" fill="white"/>
</svg>
