<svg width="30" height="30" viewBox="0 0 30 30" fill="none" xmlns="http://www.w3.org/2000/svg">
<g clip-path="url(#clip0)">
<path d="M12.5312 17.3438H5.85875C4.31957 17.3213 2.85104 16.6941 1.77054 15.5977C0.690036 14.5013 0.0843339 13.0237 0.0843339 11.4844C0.0843339 9.94503 0.690036 8.4675 1.77054 7.3711C2.85104 6.2747 4.31957 5.64748 5.85875 5.625H13.6425C14.2641 5.625 14.8602 5.87193 15.2998 6.31147C15.7393 6.75101 15.9862 7.34715 15.9862 7.96875C15.9862 8.59035 15.7393 9.18649 15.2998 9.62603C14.8602 10.0656 14.2641 10.3125 13.6425 10.3125H5.74C5.4292 10.3125 5.13113 10.436 4.91136 10.6557C4.69159 10.8755 4.56813 11.1736 4.56812 11.4844C4.56812 11.7952 4.69159 12.0932 4.91136 12.313C5.13113 12.5328 5.4292 12.6562 5.74 12.6562H12.4113C13.9653 12.6562 15.4556 13.2736 16.5545 14.3724C17.6533 15.4713 18.2706 16.9616 18.2706 18.5156C18.2706 20.0696 17.6533 21.56 16.5545 22.6588C15.4556 23.7577 13.9653 24.375 12.4113 24.375H2.34375C1.72215 24.375 1.12601 24.1281 0.686468 23.6885C0.24693 23.249 0 22.6529 0 22.0312C0 21.4096 0.24693 20.8135 0.686468 20.374C1.12601 19.9344 1.72215 19.6875 2.34375 19.6875H12.5312C12.8354 19.6776 13.1238 19.5497 13.3355 19.3311C13.5471 19.1124 13.6655 18.82 13.6655 18.5156C13.6655 18.2113 13.5471 17.9189 13.3355 17.7002C13.1238 17.4815 12.8354 17.3537 12.5312 17.3438ZM17.4625 24.375C18.2538 23.8379 18.9274 23.1453 19.4423 22.3394C19.9572 21.5335 20.3026 20.6312 20.4575 19.6875H24.24C24.5481 19.6845 24.8424 19.5594 25.0583 19.3395C25.2742 19.1197 25.3939 18.8231 25.3913 18.515V11.4862C25.3939 11.1781 25.2742 10.8816 25.0583 10.6617C24.8424 10.4419 24.5481 10.3167 24.24 10.3138H17.3688C17.9163 9.69125 18.2488 8.87 18.2488 7.97C18.2488 7.07 17.9163 6.24875 17.3688 5.62625H25.3913C27.9375 5.625 30 7.72375 30 10.3125V19.6875C30 22.2763 27.9375 24.375 25.3913 24.375H17.4625Z" fill="white"/>
</g>
<defs>
<clipPath id="clip0">
<rect width="30" height="30" fill="white"/>
</clipPath>
</defs>
</svg>
