<svg width="30" height="30" viewBox="0 0 30 30" fill="none" xmlns="http://www.w3.org/2000/svg">
<path d="M15 0C6.75 0 0 6.75 0 15C0 23.25 6.75 30 15 30C23.25 30 30 23.25 30 15C30 6.75 23.325 0 15 0ZM21.9012 21.675C21.6012 22.1238 21.0763 22.275 20.625 21.975C17.1 19.8 12.675 19.3487 7.42375 20.5487C6.90125 20.7012 6.45 20.325 6.3 19.875C6.15 19.3487 6.525 18.9 6.975 18.75C12.675 17.4737 17.625 18 21.525 20.4C22.05 20.625 22.1238 21.2238 21.9012 21.675ZM23.7013 17.55C23.325 18.075 22.65 18.3 22.1237 17.925C18.075 15.45 11.925 14.7 7.2 16.2C6.60125 16.35 5.925 16.05 5.775 15.45C5.625 14.85 5.925 14.1737 6.525 14.0238C12 12.375 18.75 13.2013 23.4 16.05C23.8512 16.2763 24.075 17.025 23.7013 17.55ZM23.8512 13.35C19.05 10.5 11.025 10.2 6.45 11.6262C5.7 11.85 4.95 11.4 4.725 10.725C4.5 9.97375 4.95 9.225 5.625 8.99875C10.95 7.42375 19.725 7.72375 25.2763 11.025C25.95 11.4 26.175 12.3 25.8 12.975C25.4262 13.5013 24.525 13.7238 23.8512 13.35Z" fill="white"/>
</svg>
